<?xml version="1.0" encoding="UTF-8"?>
<svg xmlns="http://www.w3.org/2000/svg" version="1.1" viewBox="0 0 1366 768">
  <defs>
    <style>
      .cls-1 {
        font-family: Poppins-Regular, Poppins;
        font-size: 11.3px;
      }

      .cls-2 {
        fill: #fc783d;
      }

      .cls-3, .cls-4, .cls-5, .cls-6, .cls-7, .cls-8, .cls-9, .cls-10 {
        stroke-miterlimit: 10;
      }

      .cls-3, .cls-4, .cls-5, .cls-9 {
        fill: none;
        stroke: #48b5ff;
        stroke-linecap: round;
      }

      .cls-3, .cls-5 {
        stroke-width: .2px;
      }

      .cls-4, .cls-9 {
        stroke-width: .4px;
      }

      .cls-5 {
        stroke-dasharray: 2 2;
      }

      .cls-6 {
        stroke: #333;
      }

      .cls-6, .cls-7, .cls-8 {
        stroke-width: .4px;
      }

      .cls-6, .cls-11 {
        fill: #333;
      }

      .cls-7 {
        stroke: #fff;
      }

      .cls-7, .cls-12 {
        fill: #fff;
      }

      .cls-8 {
        fill: #004884;
        stroke: #004884;
      }

      .cls-13, .cls-14, .cls-15 {
        fill: #48b5ff;
      }

      .cls-13, .cls-16 {
        opacity: .6;
      }

      .cls-14 {
        opacity: .2;
      }

      .cls-17, .cls-10 {
        fill: #004884;
      }

      .cls-9 {
        stroke-dasharray: 2 2;
      }

      .cls-10 {
        stroke: #004884;
        stroke-width: .7px;
      }

      .cls-18 {
        font-family: Poppins-Medium, Poppins;
        font-size: 21.4px;
        font-weight: 500;
      }

      .cls-19 {
        fill: #b3b3b3;
      }
    </style>
  </defs>
  <!-- Generator: Adobe Illustrator 28.6.0, SVG Export Plug-In . SVG Version: 1.2.0 Build 709)  -->
  <g>
    <g id="Layer_1">
      <rect class="cls-12" x="1022" y="410.7" width="239" height="102.9"/>
      <path class="cls-14" d="M121.5,431.8v110h295.5v-110H121.5ZM389,513.8h-239.5v-54h239.5v54Z"/>
      <g class="cls-16">
        <g>
          <line class="cls-4" x1="417" y1="473.1" x2="416" y2="473.1"/>
          <line class="cls-9" x1="414" y1="473.1" x2="123" y2="473.1"/>
          <line class="cls-4" x1="122" y1="473.1" x2="121" y2="473.1"/>
        </g>
      </g>
      <g class="cls-16">
        <g>
          <line class="cls-4" x1="417" y1="501.1" x2="416" y2="501.1"/>
          <line class="cls-9" x1="414" y1="501.1" x2="123" y2="501.1"/>
          <line class="cls-4" x1="122" y1="501.1" x2="121" y2="501.1"/>
        </g>
      </g>
      <text class="cls-1" transform="translate(1065.8 604.6)"><tspan x="0" y="0">Poppins font family</tspan></text>
      <rect class="cls-15" x="1065.8" y="534.4" width="24.4" height="24.4" transform="translate(531.4 1624.7) rotate(-90)"/>
      <rect class="cls-17" x="1105" y="534.4" width="24.4" height="24.4" transform="translate(570.6 1663.9) rotate(-90)"/>
      <rect class="cls-2" x="1143.9" y="534.4" width="24.4" height="24.4" transform="translate(609.5 1702.8) rotate(-90)"/>
      <rect class="cls-19" x="1182.8" y="534.4" width="24.4" height="24.4" transform="translate(648.4 1741.7) rotate(-90)"/>
      <rect class="cls-11" x="1221.7" y="534.4" width="24.4" height="24.4" transform="translate(687.2 1780.5) rotate(-90)"/>
      <g>
        <path class="cls-17" d="M1081.5,458.7c-1.8,0-3.3,1.5-3.3,3.3s0,.2,0,.4c-2.9-.9-6-4.6-9.4-4.6-.3,0-.5,0-.8,0v1.1c.2,0,.4,0,.6,0,4.6.7,5.5,5.8,9.3,7.3,2.6,1,5.4,0,6.5-2.3.3-.5.4-1.3.4-1.9,0-1.8-1.5-3.3-3.3-3.3Z"/>
        <path class="cls-17" d="M1078.1,450.9c-1.6,0-2.9,1.3-2.9,2.9s.2,1.2.5,1.7c-.1,0-.2.2-.4.3-1.2.7-1.8.3-4.2.5-.9.1-2.1.4-3,1.1-.1.4-.2.8-.3,1.3.4-.4.9-.9,1.8-1.2,2.3-.7,4.3.5,6.9.3,1.6-.2,2.8-.5,3.8-1.9s.6-1.4.6-2.2c0-1.6-1.3-2.9-2.9-2.9Z"/>
        <path class="cls-10" d="M1078.7,470c-6.2,0-11.3-5.1-11.3-11.3s5.1-11.3,11.3-11.3,11.3,5.1,11.3,11.3-5.1,11.3-11.3,11.3ZM1078.7,448.7c-5.5,0-10,4.5-10,10s4.5,10,10,10,10-4.5,10-10-4.5-10-10-10Z"/>
      </g>
      <g>
        <path class="cls-11" d="M1120,458.7c-1.8,0-3.3,1.5-3.3,3.3s0,.2,0,.4c-2.9-.9-6-4.6-9.4-4.6-.3,0-.5,0-.8,0v1.1c.2,0,.4,0,.6,0,4.6.7,5.5,5.8,9.3,7.3,2.6,1,5.4,0,6.5-2.3.3-.5.4-1.3.4-1.9,0-1.8-1.5-3.3-3.3-3.3Z"/>
        <path class="cls-11" d="M1116.5,450.9c-1.6,0-2.9,1.3-2.9,2.9s.2,1.2.5,1.7c-.1,0-.2.2-.4.3-1.2.7-1.8.3-4.2.5-.9.1-2.1.4-3,1.1-.1.4-.2.8-.3,1.3.4-.4.9-.9,1.8-1.2,2.3-.7,4.3.5,6.9.3,1.6-.2,2.8-.5,3.8-1.9s.6-1.4.6-2.2c0-1.6-1.3-2.9-2.9-2.9Z"/>
        <path class="cls-6" d="M1117.2,470c-6.2,0-11.3-5.1-11.3-11.3s5.1-11.3,11.3-11.3,11.3,5.1,11.3,11.3-5.1,11.3-11.3,11.3ZM1117.2,448.7c-5.5,0-10,4.5-10,10s4.5,10,10,10,10-4.5,10-10-4.5-10-10-10Z"/>
      </g>
      <g>
        <path class="cls-15" d="M1158.3,458.7c-1.8,0-3.3,1.5-3.3,3.3s0,.2,0,.4c-2.9-.9-6-4.6-9.4-4.6-.3,0-.5,0-.8,0v1.1c.2,0,.4,0,.6,0,4.6.7,5.5,5.8,9.3,7.3,2.6,1,5.4,0,6.5-2.3.3-.5.4-1.3.4-1.9,0-1.8-1.5-3.3-3.3-3.3Z"/>
        <path class="cls-15" d="M1154.9,450.9c-1.6,0-2.9,1.3-2.9,2.9s.2,1.2.5,1.7c-.1,0-.2.2-.4.3-1.2.7-1.8.3-4.2.5-.9.1-2.1.4-3,1.1-.1.4-.2.8-.3,1.3.4-.4.9-.9,1.8-1.2,2.3-.7,4.3.5,6.9.3,1.6-.2,2.8-.5,3.8-1.9s.6-1.4.6-2.2c0-1.6-1.3-2.9-2.9-2.9Z"/>
        <path class="cls-8" d="M1155.5,470c-6.2,0-11.3-5.1-11.3-11.3s5.1-11.3,11.3-11.3,11.3,5.1,11.3,11.3-5.1,11.3-11.3,11.3ZM1155.5,448.7c-5.5,0-10,4.5-10,10s4.5,10,10,10,10-4.5,10-10-4.5-10-10-10Z"/>
      </g>
      <rect class="cls-12" x="620" y="410.7" width="311" height="102.9"/>
      <g>
        <path class="cls-11" d="M728.6,473.5l-10-12.2v12.2h-5.5v-27.4h5.5v12.3l10-12.3h6.6l-11.3,13.6,11.6,13.8h-6.9Z"/>
        <path class="cls-11" d="M742.8,471.9c-2.1-1.2-3.8-2.9-5.1-5-1.3-2.1-1.9-4.5-1.9-7.2s.6-5.1,1.9-7.2c1.3-2.1,3-3.8,5.1-5,2.1-1.2,4.5-1.8,7.1-1.8s4.9.6,7.1,1.8c2.1,1.2,3.8,2.9,5.1,5,1.2,2.1,1.9,4.5,1.9,7.2s-.6,5.1-1.9,7.2c-1.2,2.1-2.9,3.8-5.1,5-2.1,1.2-4.5,1.8-7.1,1.8s-4.9-.6-7.1-1.8ZM754.3,467.7c1.3-.7,2.2-1.8,2.9-3.2.7-1.4,1.1-3,1.1-4.8s-.4-3.4-1.1-4.8c-.7-1.4-1.7-2.4-2.9-3.2-1.3-.7-2.7-1.1-4.3-1.1s-3.1.4-4.4,1.1c-1.3.7-2.3,1.8-3,3.2-.7,1.4-1.1,3-1.1,4.8s.4,3.4,1.1,4.8c.7,1.4,1.7,2.4,3,3.2,1.3.7,2.7,1.1,4.4,1.1s3.1-.4,4.3-1.1Z"/>
        <path class="cls-11" d="M792.3,473.5h-5.5l-12.4-18.8v18.8h-5.5v-27.4h5.5l12.4,18.8v-18.8h5.5v27.4Z"/>
        <path class="cls-11" d="M815.1,446.1v4.4h-11.4v7h8.7v4.3h-8.7v11.6h-5.5v-27.4h16.9Z"/>
        <path class="cls-11" d="M825.5,469.1h11.4v4.3h-16.9v-27.4h5.5v23Z"/>
        <path class="cls-11" d="M845.3,446.1v16.9c0,1.9.5,3.3,1.5,4.3,1,1,2.3,1.5,4.1,1.5s3.1-.5,4.1-1.5c1-1,1.4-2.4,1.4-4.3v-16.9h5.5v16.9c0,2.3-.5,4.3-1.5,5.9-1,1.6-2.4,2.8-4,3.6s-3.6,1.2-5.6,1.2-3.9-.4-5.5-1.2c-1.7-.8-3-2-3.9-3.6-1-1.6-1.4-3.6-1.4-5.9v-16.9h5.5Z"/>
        <path class="cls-11" d="M882.1,473.5l-5.9-9.2-5.4,9.2h-6.2l8.6-13.8-8.7-13.6h6.3l5.9,9.2,5.3-9.2h6.2l-8.6,13.8,8.7,13.6h-6.3Z"/>
      </g>
      <path class="cls-17" d="M682.4,461.4c-4.4,0-7.9,3.5-7.9,7.9s0,.6,0,.9c-6.8-2.2-14.3-11-22.6-11-.6,0-1.3,0-2,.2v1.6c.5,0,1,0,1.5,0,11,1.7,13.1,14.8,22.2,18.3,6.3,2.4,12.9-.2,15.5-5.4.6-1.3,1-3.1,1-4.6,0-4.4-3.5-7.9-7.9-7.9Z"/>
      <path class="cls-17" d="M673.4,442.3c-3.7,0-6.6,3-6.6,6.6s.5,2.8,1.3,3.9c-.2.2-.5.4-.9.6-2.7,1.5-4.1.6-9.8,1.2-2.2.2-4.9,1-6.8,2.6-.3.9-.6,1.9-.8,2.9.8-1,2.1-2.1,4.2-2.7,5.2-1.5,10,1.3,15.9.7,3.7-.3,6.5-1.1,8.7-4.4s1.5-3.2,1.5-5c0-3.7-3-6.6-6.6-6.6Z"/>
      <path class="cls-15" d="M681.6,459.6c-4.1,0-7.5,3.3-7.5,7.5s0,.5,0,.8c-6.5-2.1-13.5-10.3-21.3-10.4-1.2,0-.9-.5-2.1,0v1.5c1.1-.3.5.1,1.7.3,10.4,1.6,12.4,14,21,17.3,5.9,2.3,12.2-.2,14.7-5.1s1-3,1-4.3c0-4.1-3.3-7.5-7.5-7.5Z"/>
      <path class="cls-15" d="M672.2,441.2c-3.5,0-6.3,2.8-6.3,6.3s.4,2.6,1.2,3.7c-.2.2-.5.4-.9.6-2.6,1.4-3.9.6-9.2,1.2-2.1.2-4.6.9-6.5,2.5-.3.9-.5,1.8-.7,2.7.8-.9,2-1.9,4-2.5,4.9-1.4,9.5,1.2,15,.7s6.1-1.1,8.2-4.1c1.2-1.6,1.4-3,1.4-4.7,0-3.5-2.8-6.3-6.3-6.3Z"/>
      <path class="cls-17" d="M676.2,487.4c-14.9,0-27-12.1-27-27s12.1-27,27-27,27,12.1,27,27-12.1,27-27,27ZM676.2,436.4c-13.2,0-24,10.8-24,24s10.8,24,24,24,24-10.8,24-24-10.8-24-24-24Z"/>
      <path class="cls-11" d="M188.8,320.2l-11.2-13.7v13.7h-6.2v-30.7h6.2v13.8l11.2-13.8h7.4l-12.7,15.2,13,15.5h-7.8Z"/>
      <path class="cls-11" d="M204.8,318.5c-2.4-1.3-4.3-3.2-5.7-5.6-1.4-2.4-2.1-5.1-2.1-8.1s.7-5.7,2.1-8.1,3.3-4.3,5.7-5.6c2.4-1.3,5-2,7.9-2s5.6.7,7.9,2c2.4,1.3,4.3,3.2,5.7,5.6,1.4,2.4,2.1,5.1,2.1,8.1s-.7,5.7-2.1,8.1c-1.4,2.4-3.3,4.3-5.7,5.6-2.4,1.4-5,2-7.9,2s-5.5-.7-7.9-2ZM217.6,313.7c1.4-.8,2.5-2,3.3-3.6.8-1.6,1.2-3.4,1.2-5.4s-.4-3.9-1.2-5.4c-.8-1.5-1.9-2.7-3.3-3.5-1.4-.8-3-1.2-4.9-1.2s-3.5.4-4.9,1.2c-1.4.8-2.5,2-3.3,3.5-.8,1.5-1.2,3.3-1.2,5.4s.4,3.9,1.2,5.4c.8,1.6,1.9,2.8,3.3,3.6,1.4.8,3.1,1.3,4.9,1.3s3.5-.4,4.9-1.3Z"/>
      <path class="cls-11" d="M260.4,320.2h-6.2l-14-21.1v21.1h-6.2v-30.8h6.2l14,21.1v-21.1h6.2v30.8Z"/>
      <path class="cls-11" d="M286,289.5v5h-12.8v7.9h9.8v4.9h-9.8v13h-6.2v-30.7h19Z"/>
      <path class="cls-11" d="M297.6,315.3h12.8v4.9h-18.9v-30.7h6.2v25.8Z"/>
      <path class="cls-11" d="M320,289.5v19c0,2.1.5,3.7,1.6,4.8,1.1,1.1,2.6,1.7,4.6,1.7s3.5-.6,4.6-1.7c1.1-1.1,1.6-2.7,1.6-4.8v-19h6.2v19c0,2.6-.6,4.8-1.7,6.6-1.1,1.8-2.6,3.2-4.5,4.1s-4,1.4-6.3,1.4-4.4-.5-6.2-1.4c-1.9-.9-3.3-2.3-4.4-4.1-1.1-1.8-1.6-4-1.6-6.6v-19h6.2Z"/>
      <path class="cls-11" d="M361.3,320.2l-6.6-10.3-6,10.3h-7l9.7-15.5-9.8-15.2h7.1l6.6,10.3,6-10.3h7l-9.6,15.5,9.8,15.3h-7.1Z"/>
      <g>
        <path class="cls-17" d="M286.6,188.6c-14.2,0-25.6,11.5-25.6,25.6s0,1.9.2,2.8c-22.2-7.2-46.4-35.5-73.2-35.8-2,0-4.2.2-6.4.5v5.3c1.6-.2,3.3-.2,4.9,0,35.7,5.7,42.6,48.1,71.9,59.5,20.4,7.9,41.9-.6,50.4-17.6,2-4.1,3.4-10.2,3.4-14.9,0-14.2-11.5-25.6-25.6-25.6Z"/>
        <path class="cls-17" d="M257.4,126.4c-11.9,0-21.5,9.6-21.5,21.5s1.5,9.1,4.1,12.6c-.8.7-1.8,1.4-3,2.1-8.8,4.9-13.3,2-31.7,4-7.1.8-15.8,3.2-22.2,8.6-1,3.1-1.8,6.2-2.5,9.4,2.7-3.1,6.9-6.7,13.6-8.6,16.9-4.9,32.5,4.1,51.5,2.3,11.9-1.1,21-3.6,28.3-14.2,4-5.7,4.8-10.4,4.8-16.1,0-11.9-9.6-21.5-21.5-21.5Z"/>
        <path class="cls-15" d="M284.1,183.7c-13.4,0-24.2,10.8-24.2,24.2s0,1.8.1,2.6c-21-6.8-43.9-33.6-69.2-33.8-4,0-2.8-1.6-6.9-.2v4.8c3.5-1.1,1.6.4,5.5,1,33.7,5.4,40.2,45.4,68,56.2,19.3,7.5,39.6-.5,47.6-16.6,1.9-3.9,3.2-9.6,3.2-14,0-13.4-10.8-24.2-24.2-24.2Z"/>
        <path class="cls-15" d="M253.4,124.3c-11.2,0-20.3,9.1-20.3,20.3s1.4,8.6,3.9,11.9c-.8.7-1.7,1.4-2.8,2-8.3,4.6-12.6,1.9-30,3.7-6.7.7-14.9,3-20.9,8.1-.9,2.9-1.7,5.9-2.4,8.9,2.6-2.9,6.6-6.3,12.9-8.2,15.9-4.6,30.7,3.9,48.7,2.1,11.2-1.1,19.8-3.4,26.8-13.4s4.5-9.8,4.5-15.3c0-11.2-9.1-20.3-20.3-20.3Z"/>
        <path class="cls-17" d="M266.7,272.8c-48.3,0-87.5-39.3-87.5-87.5s39.3-87.5,87.5-87.5,87.5,39.3,87.5,87.5-39.3,87.5-87.5,87.5ZM266.7,107.4c-42.9,0-77.9,34.9-77.9,77.9s34.9,77.9,77.9,77.9,77.9-34.9,77.9-77.9-34.9-77.9-77.9-77.9Z"/>
        <path class="cls-17" d="M286.6,188.6c-14.2,0-25.6,11.5-25.6,25.6s0,1.9.2,2.8c-22.2-7.2-46.4-35.5-73.2-35.8-2,0-4.2.2-6.4.5v5.3c1.6-.2,3.3-.2,4.9,0,35.7,5.7,42.6,48.1,71.9,59.5,20.4,7.9,41.9-.6,50.4-17.6,2-4.1,3.4-10.2,3.4-14.9,0-14.2-11.5-25.6-25.6-25.6Z"/>
        <path class="cls-17" d="M257.4,126.4c-11.9,0-21.5,9.6-21.5,21.5s1.5,9.1,4.1,12.6c-.8.7-1.8,1.4-3,2.1-8.8,4.9-13.3,2-31.7,4-7.1.8-15.8,3.2-22.2,8.6-1,3.1-1.8,6.2-2.5,9.4,2.7-3.1,6.9-6.7,13.6-8.6,16.9-4.9,32.5,4.1,51.5,2.3,11.9-1.1,21-3.6,28.3-14.2,4-5.7,4.8-10.4,4.8-16.1,0-11.9-9.6-21.5-21.5-21.5Z"/>
        <path class="cls-15" d="M284.1,183.7c-13.4,0-24.2,10.8-24.2,24.2s0,1.8.1,2.6c-21-6.8-43.9-33.6-69.2-33.8-4,0-2.8-1.6-6.9-.2v4.8c3.5-1.1,1.6.4,5.5,1,33.7,5.4,40.2,45.4,68,56.2,19.3,7.5,39.6-.5,47.6-16.6,1.9-3.9,3.2-9.6,3.2-14,0-13.4-10.8-24.2-24.2-24.2Z"/>
        <path class="cls-15" d="M253.4,124.3c-11.2,0-20.3,9.1-20.3,20.3s1.4,8.6,3.9,11.9c-.8.7-1.7,1.4-2.8,2-8.3,4.6-12.6,1.9-30,3.7-6.7.7-14.9,3-20.9,8.1-.9,2.9-1.7,5.9-2.4,8.9,2.6-2.9,6.6-6.3,12.9-8.2,15.9-4.6,30.7,3.9,48.7,2.1,11.2-1.1,19.8-3.4,26.8-13.4s4.5-9.8,4.5-15.3c0-11.2-9.1-20.3-20.3-20.3Z"/>
        <path class="cls-17" d="M266.7,272.8c-48.3,0-87.5-39.3-87.5-87.5s39.3-87.5,87.5-87.5,87.5,39.3,87.5,87.5-39.3,87.5-87.5,87.5ZM266.7,107.4c-42.9,0-77.9,34.9-77.9,77.9s34.9,77.9,77.9,77.9,77.9-34.9,77.9-77.9-34.9-77.9-77.9-77.9Z"/>
      </g>
      <rect class="cls-11" x="620.4" y="524.8" width="311" height="102.9"/>
      <path class="cls-12" d="M727.9,589.6l-9-11v11h-5v-24.7h5v11.1l9-11.1h6l-10.2,12.3,10.5,12.5h-6.3Z"/>
      <path class="cls-12" d="M740.8,588.2c-1.9-1.1-3.5-2.6-4.6-4.5-1.1-1.9-1.7-4.1-1.7-6.5s.6-4.6,1.7-6.5,2.7-3.4,4.6-4.5c1.9-1.1,4.1-1.6,6.4-1.6s4.5.5,6.4,1.6c1.9,1.1,3.4,2.6,4.6,4.5,1.1,1.9,1.7,4.1,1.7,6.5s-.6,4.6-1.7,6.5c-1.1,1.9-2.7,3.4-4.6,4.5-1.9,1.1-4.1,1.6-6.4,1.6s-4.4-.5-6.4-1.6ZM751.1,584.4c1.1-.7,2-1.6,2.7-2.9.6-1.3,1-2.7,1-4.4s-.3-3.1-1-4.3c-.6-1.2-1.5-2.2-2.7-2.9-1.1-.7-2.4-1-3.9-1s-2.8.3-4,1c-1.1.7-2,1.6-2.7,2.9-.6,1.2-1,2.7-1,4.3s.3,3.1,1,4.4c.6,1.3,1.5,2.2,2.7,2.9,1.1.7,2.5,1,4,1s2.8-.3,3.9-1Z"/>
      <path class="cls-12" d="M785.6,589.6h-5l-11.2-17v17h-5v-24.8h5l11.2,17v-17h5v24.8Z"/>
      <path class="cls-12" d="M806.2,564.9v4h-10.3v6.3h7.9v3.9h-7.9v10.5h-5v-24.7h15.3Z"/>
      <path class="cls-12" d="M815.5,585.7h10.3v3.9h-15.2v-24.7h5v20.8Z"/>
      <path class="cls-12" d="M833.5,564.9v15.3c0,1.7.4,3,1.3,3.8.9.9,2.1,1.3,3.7,1.3s2.8-.4,3.7-1.3c.9-.9,1.3-2.2,1.3-3.8v-15.3h5v15.3c0,2.1-.5,3.9-1.4,5.3-.9,1.5-2.1,2.5-3.6,3.3s-3.2,1.1-5.1,1.1-3.5-.4-5-1.1c-1.5-.7-2.7-1.8-3.6-3.3-.9-1.5-1.3-3.2-1.3-5.3v-15.3h5Z"/>
      <path class="cls-12" d="M866.8,589.6l-5.4-8.3-4.9,8.3h-5.6l7.8-12.5-7.9-12.3h5.7l5.4,8.3,4.8-8.3h5.6l-7.8,12.4,7.9,12.3h-5.7Z"/>
      <path class="cls-19" d="M686.2,578.7c-3.9,0-7.1,3.2-7.1,7.1s0,.5,0,.8c-6.2-2-12.9-9.9-20.4-10-.6,0-1.2,0-1.8.2v1.5c.5,0,.9,0,1.4,0,9.9,1.6,11.9,13.4,20.1,16.6,5.7,2.2,11.7-.2,14.1-4.9.6-1.1.9-2.8.9-4.1,0-3.9-3.2-7.1-7.1-7.1Z"/>
      <path class="cls-19" d="M678,561.4c-3.3,0-6,2.7-6,6s.4,2.5,1.1,3.5c-.2.2-.5.4-.8.6-2.5,1.4-3.7.6-8.8,1.1-2,.2-4.4.9-6.2,2.4-.3.9-.5,1.7-.7,2.6.8-.9,1.9-1.9,3.8-2.4,4.7-1.4,9,1.1,14.4.6s5.8-1,7.9-3.9,1.3-2.9,1.3-4.5c0-3.3-2.7-6-6-6Z"/>
      <path class="cls-12" d="M685.4,577c-3.7,0-6.8,3-6.8,6.8s0,.5,0,.7c-5.8-1.9-12.2-9.4-19.3-9.4-1.1,0-.8-.5-1.9,0v1.3c1-.3.4.1,1.5.3,9.4,1.5,11.2,12.7,18.9,15.7,5.4,2.1,11-.1,13.3-4.6.5-1.1.9-2.7.9-3.9,0-3.7-3-6.8-6.8-6.8Z"/>
      <path class="cls-12" d="M676.9,560.5c-3.1,0-5.7,2.5-5.7,5.7s.4,2.4,1.1,3.3c-.2.2-.5.4-.8.6-2.3,1.3-3.5.5-8.4,1-1.9.2-4.2.8-5.8,2.3-.3.8-.5,1.6-.7,2.5.7-.8,1.8-1.8,3.6-2.3,4.4-1.3,8.5,1.1,13.6.6,3.1-.3,5.5-1,7.5-3.7s1.3-2.7,1.3-4.3c0-3.1-2.5-5.7-5.7-5.7Z"/>
      <path class="cls-12" d="M680.6,602.2c-13.4,0-24.4-10.9-24.4-24.4s10.9-24.4,24.4-24.4,24.4,10.9,24.4,24.4-10.9,24.4-24.4,24.4ZM680.6,556.1c-12,0-21.7,9.7-21.7,21.7s9.7,21.7,21.7,21.7,21.7-9.7,21.7-21.7-9.7-21.7-21.7-21.7Z"/>
      <rect class="cls-11" x="1182.8" y="440.2" width="36.7" height="36.7" transform="translate(742.6 1659.7) rotate(-90)"/>
      <g>
        <path class="cls-12" d="M1203.7,458.7c-1.8,0-3.3,1.5-3.3,3.3s0,.2,0,.4c-2.9-.9-6-4.6-9.4-4.6-.3,0-.5,0-.8,0v1.1c.2,0,.4,0,.6,0,4.6.7,5.5,5.8,9.3,7.3,2.6,1,5.4,0,6.5-2.3.3-.5.4-1.3.4-1.9,0-1.8-1.5-3.3-3.3-3.3Z"/>
        <path class="cls-12" d="M1200.3,450.9c-1.6,0-2.9,1.3-2.9,2.9s.2,1.2.5,1.7c-.1,0-.2.2-.4.3-1.2.7-1.8.3-4.2.5-.9.1-2.1.4-3,1.1-.1.4-.2.8-.3,1.3.4-.4.9-.9,1.8-1.2,2.3-.7,4.3.5,6.9.3,1.6-.2,2.8-.5,3.8-1.9s.6-1.4.6-2.2c0-1.6-1.3-2.9-2.9-2.9Z"/>
        <path class="cls-7" d="M1200.9,470c-6.2,0-11.3-5.1-11.3-11.3s5.1-11.3,11.3-11.3,11.3,5.1,11.3,11.3-5.1,11.3-11.3,11.3ZM1200.9,448.7c-5.5,0-10,4.5-10,10s4.5,10,10,10,10-4.5,10-10-4.5-10-10-10Z"/>
      </g>
      <text class="cls-18" transform="translate(1065.9 633.2)"><tspan x="0" y="0">AaBbCcDdEe</tspan></text>
      <path class="cls-11" d="M229.4,500.3l-10-12.2v12.2h-5.5v-27.4h5.5v12.3l10-12.3h6.6l-11.3,13.6,11.6,13.8h-6.9Z"/>
      <path class="cls-11" d="M243.6,498.7c-2.1-1.2-3.8-2.9-5.1-5-1.3-2.1-1.9-4.5-1.9-7.2s.6-5.1,1.9-7.2,3-3.8,5.1-5c2.1-1.2,4.5-1.8,7.1-1.8s4.9.6,7.1,1.8c2.1,1.2,3.8,2.9,5.1,5,1.2,2.1,1.9,4.5,1.9,7.2s-.6,5.1-1.9,7.2c-1.2,2.1-2.9,3.8-5.1,5-2.1,1.2-4.5,1.8-7.1,1.8s-4.9-.6-7.1-1.8ZM255,494.5c1.3-.7,2.2-1.8,2.9-3.2.7-1.4,1.1-3,1.1-4.8s-.4-3.4-1.1-4.8c-.7-1.4-1.7-2.4-2.9-3.2-1.3-.7-2.7-1.1-4.3-1.1s-3.1.4-4.4,1.1c-1.3.7-2.3,1.8-3,3.2-.7,1.4-1.1,3-1.1,4.8s.4,3.4,1.1,4.8c.7,1.4,1.7,2.4,3,3.2,1.3.7,2.7,1.1,4.4,1.1s3.1-.4,4.3-1.1Z"/>
      <path class="cls-11" d="M293.1,500.3h-5.5l-12.4-18.8v18.8h-5.5v-27.4h5.5l12.4,18.8v-18.8h5.5v27.4Z"/>
      <path class="cls-11" d="M315.9,472.9v4.4h-11.4v7h8.7v4.3h-8.7v11.6h-5.5v-27.4h16.9Z"/>
      <path class="cls-11" d="M326.2,495.9h11.4v4.3h-16.9v-27.4h5.5v23Z"/>
      <path class="cls-11" d="M346.1,472.9v16.9c0,1.9.5,3.3,1.5,4.3,1,1,2.3,1.5,4.1,1.5s3.1-.5,4.1-1.5c1-1,1.4-2.4,1.4-4.3v-16.9h5.5v16.9c0,2.3-.5,4.3-1.5,5.9-1,1.6-2.4,2.8-4,3.6s-3.6,1.2-5.6,1.2-3.9-.4-5.5-1.2c-1.7-.8-3-2-3.9-3.6-1-1.6-1.4-3.6-1.4-5.9v-16.9h5.5Z"/>
      <path class="cls-11" d="M382.9,500.3l-5.9-9.2-5.4,9.2h-6.2l8.6-13.8-8.7-13.6h6.3l5.9,9.2,5.3-9.2h6.2l-8.6,13.8,8.7,13.6h-6.3Z"/>
      <path class="cls-17" d="M183.2,488.2c-4.4,0-7.9,3.5-7.9,7.9s0,.6,0,.9c-6.8-2.2-14.3-11-22.6-11-.6,0-1.3,0-2,.2v1.6c.5,0,1,0,1.5,0,11,1.7,13.1,14.8,22.2,18.3,6.3,2.4,12.9-.2,15.5-5.4.6-1.3,1-3.1,1-4.6,0-4.4-3.5-7.9-7.9-7.9Z"/>
      <path class="cls-17" d="M174.2,469.1c-3.7,0-6.6,3-6.6,6.6s.5,2.8,1.3,3.9c-.2.2-.5.4-.9.6-2.7,1.5-4.1.6-9.8,1.2-2.2.2-4.9,1-6.8,2.6-.3.9-.6,1.9-.8,2.9.8-1,2.1-2.1,4.2-2.7,5.2-1.5,10,1.3,15.9.7,3.7-.3,6.5-1.1,8.7-4.4,1.2-1.7,1.5-3.2,1.5-5,0-3.7-3-6.6-6.6-6.6Z"/>
      <path class="cls-15" d="M182.4,486.3c-4.1,0-7.5,3.3-7.5,7.5s0,.5,0,.8c-6.5-2.1-13.5-10.3-21.3-10.4-1.2,0-.9-.5-2.1,0v1.5c1.1-.3.5.1,1.7.3,10.4,1.6,12.4,14,21,17.3,5.9,2.3,12.2-.2,14.7-5.1s1-3,1-4.3c0-4.1-3.3-7.5-7.5-7.5Z"/>
      <path class="cls-15" d="M172.9,468c-3.5,0-6.3,2.8-6.3,6.3s.4,2.6,1.2,3.7c-.2.2-.5.4-.9.6-2.6,1.4-3.9.6-9.2,1.2-2.1.2-4.6.9-6.5,2.5-.3.9-.5,1.8-.7,2.7.8-.9,2-1.9,4-2.5,4.9-1.4,9.5,1.2,15,.7s6.1-1.1,8.2-4.1c1.2-1.6,1.4-3,1.4-4.7,0-3.5-2.8-6.3-6.3-6.3Z"/>
      <path class="cls-17" d="M177,514.2c-14.9,0-27-12.1-27-27s12.1-27,27-27,27,12.1,27,27-12.1,27-27,27ZM177,463.2c-13.2,0-24,10.8-24,24s10.8,24,24,24,24-10.8,24-24-10.8-24-24-24Z"/>
      <path class="cls-13" d="M243.6,458.4c-2.1-1.2-3.8-2.9-5.1-5-1.3-2.1-1.9-4.5-1.9-7.2s.6-5.1,1.9-7.2,3-3.8,5.1-5c2.1-1.2,4.5-1.8,7.1-1.8s4.9.6,7.1,1.8c2.1,1.2,3.8,2.9,5.1,5,1.2,2.1,1.9,4.5,1.9,7.2s-.6,5.1-1.9,7.2c-1.2,2.1-2.9,3.8-5.1,5-2.1,1.2-4.5,1.8-7.1,1.8s-4.9-.6-7.1-1.8ZM255,454.2c1.3-.7,2.2-1.8,2.9-3.2.7-1.4,1.1-3,1.1-4.8s-.4-3.4-1.1-4.8c-.7-1.4-1.7-2.4-2.9-3.2-1.3-.7-2.7-1.1-4.3-1.1s-3.1.4-4.4,1.1c-1.3.7-2.3,1.8-3,3.2-.7,1.4-1.1,3-1.1,4.8s.4,3.4,1.1,4.8c.7,1.4,1.7,2.4,3,3.2,1.3.7,2.7,1.1,4.4,1.1s3.1-.4,4.3-1.1Z"/>
      <path class="cls-13" d="M243.6,540.4c-2.1-1.2-3.8-2.9-5.1-5-1.3-2.1-1.9-4.5-1.9-7.2s.6-5.1,1.9-7.2,3-3.8,5.1-5c2.1-1.2,4.5-1.8,7.1-1.8s4.9.6,7.1,1.8c2.1,1.2,3.8,2.9,5.1,5,1.2,2.1,1.9,4.5,1.9,7.2s-.6,5.1-1.9,7.2c-1.2,2.1-2.9,3.8-5.1,5-2.1,1.2-4.5,1.8-7.1,1.8s-4.9-.6-7.1-1.8ZM255,536.2c1.3-.7,2.2-1.8,2.9-3.2.7-1.4,1.1-3,1.1-4.8s-.4-3.4-1.1-4.8c-.7-1.4-1.7-2.4-2.9-3.2-1.3-.7-2.7-1.1-4.3-1.1s-3.1.4-4.4,1.1c-1.3.7-2.3,1.8-3,3.2-.7,1.4-1.1,3-1.1,4.8s.4,3.4,1.1,4.8c.7,1.4,1.7,2.4,3,3.2,1.3.7,2.7,1.1,4.4,1.1s3.1-.4,4.3-1.1Z"/>
      <path class="cls-13" d="M415.2,493.9c-1.2,2.1-2.9,3.8-5,5.1-2.1,1.3-4.5,1.9-7.2,1.9s-5.1-.6-7.2-1.9-3.8-3-5-5.1c-1.2-2.1-1.8-4.5-1.8-7.1s.6-4.9,1.8-7.1c1.2-2.1,2.9-3.8,5-5.1,2.1-1.2,4.5-1.9,7.2-1.9s5.1.6,7.2,1.9c2.1,1.2,3.8,2.9,5,5.1,1.2,2.1,1.8,4.5,1.8,7.1s-.6,4.9-1.8,7.1ZM411,482.5c-.7-1.3-1.8-2.2-3.2-2.9-1.4-.7-3-1.1-4.8-1.1s-3.4.4-4.8,1.1c-1.4.7-2.4,1.7-3.2,2.9-.7,1.3-1.1,2.7-1.1,4.3s.4,3.1,1.1,4.4c.7,1.3,1.8,2.3,3.2,3,1.4.7,3,1.1,4.8,1.1s3.4-.4,4.8-1.1c1.4-.7,2.4-1.7,3.2-3,.7-1.3,1.1-2.7,1.1-4.4s-.4-3.1-1.1-4.3Z"/>
      <path class="cls-13" d="M147.8,493.9c-1.2,2.1-2.9,3.8-5,5.1-2.1,1.3-4.5,1.9-7.2,1.9s-5.1-.6-7.2-1.9-3.8-2.9-5-5.1c-1.2-2.1-1.8-4.5-1.8-7s.6-4.9,1.8-7.1c1.2-2.1,2.9-3.8,5-5.1,2.1-1.2,4.5-1.9,7.2-1.9s5.1.6,7.2,1.9c2.1,1.2,3.8,2.9,5,5.1,1.2,2.1,1.8,4.5,1.8,7s-.6,4.9-1.8,7ZM143.6,482.5c-.7-1.3-1.8-2.2-3.2-2.9-1.4-.7-3-1.1-4.8-1.1s-3.4.4-4.8,1.1c-1.4.7-2.4,1.7-3.2,2.9-.7,1.3-1.1,2.7-1.1,4.3s.4,3.1,1.1,4.4c.7,1.3,1.8,2.3,3.2,3,1.4.7,3,1.1,4.8,1.1s3.4-.4,4.8-1.1c1.4-.7,2.4-1.7,3.2-3,.7-1.3,1.1-2.7,1.1-4.4s-.4-3.1-1.1-4.3Z"/>
      <g class="cls-16">
        <g>
          <line class="cls-3" x1="236.6" y1="432" x2="236.6" y2="433"/>
          <line class="cls-5" x1="236.6" y1="435" x2="236.6" y2="540.3"/>
          <line class="cls-3" x1="236.6" y1="541.3" x2="236.6" y2="542.3"/>
        </g>
      </g>
      <g class="cls-16">
        <g>
          <line class="cls-3" x1="264.7" y1="432" x2="264.7" y2="433"/>
          <line class="cls-5" x1="264.7" y1="435" x2="264.7" y2="540.3"/>
          <line class="cls-3" x1="264.7" y1="541.3" x2="264.7" y2="542.3"/>
        </g>
      </g>
      <g>
        <path class="cls-17" d="M993.5,227.5c-14.2,0-25.6,11.5-25.6,25.6s0,1.9.2,2.8c-22.2-7.2-46.4-35.5-73.2-35.8-2,0-4.2.2-6.4.5v5.3c1.6-.2,3.3-.2,4.9,0,35.7,5.7,42.6,48.1,71.9,59.5,20.4,7.9,41.9-.6,50.4-17.6,2-4.1,3.4-10.2,3.4-14.9,0-14.2-11.5-25.6-25.6-25.6Z"/>
        <path class="cls-17" d="M964.3,165.2c-11.9,0-21.5,9.6-21.5,21.5s1.5,9.1,4.1,12.6c-.8.7-1.8,1.4-3,2.1-8.8,4.9-13.3,2-31.7,4-7.1.8-15.8,3.2-22.2,8.6-1,3.1-1.8,6.2-2.5,9.4,2.7-3.1,6.9-6.7,13.6-8.6,16.9-4.9,32.5,4.1,51.5,2.3,11.9-1.1,21-3.6,28.3-14.2,4-5.7,4.8-10.4,4.8-16.1,0-11.9-9.6-21.5-21.5-21.5Z"/>
        <path class="cls-15" d="M990.9,222.5c-13.4,0-24.2,10.8-24.2,24.2s0,1.8.1,2.6c-21-6.8-43.9-33.6-69.2-33.8-4,0-2.8-1.6-6.9-.2v4.8c3.5-1.1,1.6.4,5.5,1,33.7,5.4,40.2,45.4,68,56.2,19.3,7.5,39.6-.5,47.6-16.6,1.9-3.9,3.2-9.6,3.2-14,0-13.4-10.8-24.2-24.2-24.2Z"/>
        <path class="cls-15" d="M960.3,163.1c-11.2,0-20.3,9.1-20.3,20.3s1.4,8.6,3.9,11.9c-.8.7-1.7,1.4-2.8,2-8.3,4.6-12.6,1.9-30,3.7-6.7.7-14.9,3-20.9,8.1-.9,2.9-1.7,5.9-2.4,8.9,2.6-2.9,6.6-6.3,12.9-8.2,15.9-4.6,30.7,3.9,48.7,2.1,11.2-1.1,19.8-3.4,26.8-13.4s4.5-9.8,4.5-15.3c0-11.2-9.1-20.3-20.3-20.3Z"/>
        <path class="cls-17" d="M973.5,311.6c-48.3,0-87.5-39.3-87.5-87.5s39.3-87.5,87.5-87.5,87.5,39.3,87.5,87.5-39.3,87.5-87.5,87.5ZM973.5,146.3c-42.9,0-77.9,34.9-77.9,77.9s34.9,77.9,77.9,77.9,77.9-34.9,77.9-77.9-34.9-77.9-77.9-77.9Z"/>
        <path class="cls-17" d="M993.5,227.5c-14.2,0-25.6,11.5-25.6,25.6s0,1.9.2,2.8c-22.2-7.2-46.4-35.5-73.2-35.8-2,0-4.2.2-6.4.5v5.3c1.6-.2,3.3-.2,4.9,0,35.7,5.7,42.6,48.1,71.9,59.5,20.4,7.9,41.9-.6,50.4-17.6,2-4.1,3.4-10.2,3.4-14.9,0-14.2-11.5-25.6-25.6-25.6Z"/>
        <path class="cls-17" d="M964.3,165.2c-11.9,0-21.5,9.6-21.5,21.5s1.5,9.1,4.1,12.6c-.8.7-1.8,1.4-3,2.1-8.8,4.9-13.3,2-31.7,4-7.1.8-15.8,3.2-22.2,8.6-1,3.1-1.8,6.2-2.5,9.4,2.7-3.1,6.9-6.7,13.6-8.6,16.9-4.9,32.5,4.1,51.5,2.3,11.9-1.1,21-3.6,28.3-14.2,4-5.7,4.8-10.4,4.8-16.1,0-11.9-9.6-21.5-21.5-21.5Z"/>
        <path class="cls-15" d="M990.9,222.5c-13.4,0-24.2,10.8-24.2,24.2s0,1.8.1,2.6c-21-6.8-43.9-33.6-69.2-33.8-4,0-2.8-1.6-6.9-.2v4.8c3.5-1.1,1.6.4,5.5,1,33.7,5.4,40.2,45.4,68,56.2,19.3,7.5,39.6-.5,47.6-16.6,1.9-3.9,3.2-9.6,3.2-14,0-13.4-10.8-24.2-24.2-24.2Z"/>
        <path class="cls-15" d="M960.3,163.1c-11.2,0-20.3,9.1-20.3,20.3s1.4,8.6,3.9,11.9c-.8.7-1.7,1.4-2.8,2-8.3,4.6-12.6,1.9-30,3.7-6.7.7-14.9,3-20.9,8.1-.9,2.9-1.7,5.9-2.4,8.9,2.6-2.9,6.6-6.3,12.9-8.2,15.9-4.6,30.7,3.9,48.7,2.1,11.2-1.1,19.8-3.4,26.8-13.4s4.5-9.8,4.5-15.3c0-11.2-9.1-20.3-20.3-20.3Z"/>
        <path class="cls-17" d="M973.5,311.6c-48.3,0-87.5-39.3-87.5-87.5s39.3-87.5,87.5-87.5,87.5,39.3,87.5,87.5-39.3,87.5-87.5,87.5ZM973.5,146.3c-42.9,0-77.9,34.9-77.9,77.9s34.9,77.9,77.9,77.9,77.9-34.9,77.9-77.9-34.9-77.9-77.9-77.9Z"/>
      </g>
    </g>
  </g>
</svg>